<?xml version="1.0" encoding="UTF-8"?><svg xmlns="http://www.w3.org/2000/svg" width="1273.92" height="2206.54" viewBox="0 0 1273.92 2206.54"><g id="a"><polygon points="0 1838.8 636.96 1471.05 636.96 2206.54 0 1838.8" style="fill:#1f8fcc;"/></g><g id="b"><polygon points="636.96 2206.54 636.96 1471.05 1273.92 1838.8 636.96 2206.54" style="fill:#33a6e8;"/></g><g id="c"><polygon points="1273.92 1838.8 636.96 1471.05 1273.92 1103.3 1273.92 1838.8" style="fill:#73ceff;"/></g><g id="d"><polygon points="1273.92 1103.24 636.96 1470.99 636.96 735.5 1273.92 1103.24" style="fill:#135a80;"/></g><g id="e"><polygon points="636.96 735.5 636.96 1470.99 0 1103.24 636.96 735.5" style="fill:#396780;"/></g><g id="f"><polygon points="636.96 735.5 0 1103.24 0 367.75 636.96 735.5" style="fill:#1f8fcc;"/></g><g id="g"><polygon points="636.96 0 636.96 735.5 0 367.75 636.96 0" style="fill:#27b5ff;"/></g><g id="h"><polygon points="636.96 0 636.96 735.5 1273.92 367.75 636.96 0" style="fill:#73ceff;"/></g></svg>
